<svg width="35" height="36" viewBox="0 0 35 36" fill="none" xmlns="http://www.w3.org/2000/svg">
<mask id="mask0_462_18197" style="mask-type:alpha" maskUnits="userSpaceOnUse" x="0" y="1" width="35" height="34">
<path d="M0.746582 1.66919H34.2533V34.3592H0.746582V1.66919Z" fill="#1976D2"/>
</mask>
<g mask="url(#mask0_462_18197)">
<mask id="mask1_462_18197" style="mask-type:alpha" maskUnits="userSpaceOnUse" x="0" y="1" width="35" height="34">
<path d="M2.26802 10.6111C3.05406 18.6611 7.00796 24.953 15.0219 27.146C10.4551 24.7332 8.14036 20.8712 8.07255 15.5679C8.63036 15.6945 8.84583 15.7411 9.40328 15.8804C9.44557 21.3655 13.9445 25.5364 18.71 27.3998C15.9089 28.507 12.2339 27.8686 9.63151 26.411C4.19046 23.381 0.0334845 16.1976 0.954422 6.55872C3.01177 9.90523 5.38994 11.6337 8.25411 12.5802C8.57093 10.0788 9.38651 7.0531 10.5357 4.01903C10.8226 3.18632 11.1438 2.39627 11.5113 1.66528C12.99 7.32362 15.4317 11.1605 18.8325 13.1635C15.8626 13.0366 12.842 9.60117 11.4522 6.35565C10.679 8.28284 9.97786 10.7675 9.80468 12.9181L10.6917 13.1719C19.9306 15.7327 23.758 20.7399 22.3259 26.4026C25.3465 25.0839 25.4985 20.0133 26.2802 16.8608C27.087 13.624 28.16 10.9662 30.6654 9.97705C27.8053 7.15007 22.1148 7.81799 19.7195 14.3717C20.8727 7.47127 26.9011 5.40481 30.9651 8.47716C32.5157 9.48268 33.4239 10.6574 34.1968 10.7336C28.6376 10.5476 27.9868 15.1031 27.0323 20.6218C26.5 23.6981 25.6254 27.9237 21.7896 28.0885C19.0647 34.9003 11.372 35.7582 5.91822 32.61C11.4183 34.0848 18.3593 33.7173 20.3069 26.9517C21.0207 24.463 20.8771 21.8978 19.1533 19.7005C17.4846 17.575 14.4137 16.1425 11.9171 15.3776C7.95005 14.4312 2.33145 12.0056 2.26802 10.6111Z" fill="black"/>
</mask>
<g mask="url(#mask1_462_18197)">
<path d="M0.745117 1.66919V34.3592H34.1967V1.66919H0.745117Z" fill="#1976D2"/>
</g>
</g>
</svg>
